<svg width="351" height="139" viewBox="0 0 351 139" fill="none" xmlns="http://www.w3.org/2000/svg">
<path d="M46.4 139C37.7333 139 29.8667 136.867 22.8 132.6C15.7333 128.2 10.1333 122.267 6 114.8C2 107.333 3.48687e-06 98.9333 3.48687e-06 89.6C3.48687e-06 80.2667 2 71.8667 6 64.4C10.1333 56.9333 15.6667 51 22.6 46.6C29.6667 42.2 37.6 40 46.4 40C53.6 40 60 41.5333 65.6 44.6C71.3333 47.5333 75.9333 51.6667 79.4 57C82.8667 62.2 84.8 68.2667 85.2 75.2V103.8C84.8 110.6 82.8667 116.667 79.4 122C76.0667 127.333 71.5333 131.533 65.8 134.6C60.2 137.533 53.7333 139 46.4 139ZM49.4 122C58.3333 122 65.5333 119 71 113C76.4667 106.867 79.2 99.0667 79.2 89.6C79.2 83.0667 77.9333 77.4 75.4 72.6C73 67.6667 69.5333 63.8667 65 61.2C60.4667 58.4 55.2 57 49.2 57C43.2 57 37.8667 58.4 33.2 61.2C28.6667 64 25.0667 67.8667 22.4 72.8C19.8667 77.6 18.6 83.1333 18.6 89.4C18.6 95.8 19.8667 101.467 22.4 106.4C25.0667 111.2 28.7333 115 33.4 117.8C38.0667 120.6 43.4 122 49.4 122ZM78 137V111.4L81.4 88.2L78 65.2V42H96.2V137H78ZM166.406 139C156.94 139 148.406 136.867 140.806 132.6C133.206 128.2 127.206 122.267 122.806 114.8C118.406 107.333 116.206 98.8667 116.206 89.4C116.206 80.0667 118.34 71.6667 122.606 64.2C127.006 56.7333 132.873 50.8667 140.206 46.6C147.673 42.2 156.006 40 165.206 40C174.006 40 181.74 42 188.406 46C195.206 50 200.473 55.5333 204.206 62.6C208.073 69.6667 210.006 77.6667 210.006 86.6C210.006 87.9333 209.94 89.4 209.806 91C209.673 92.4667 209.406 94.2 209.006 96.2H128.806V81.2H199.406L192.806 87C192.806 80.6 191.673 75.2 189.406 70.8C187.14 66.2667 183.94 62.8 179.806 60.4C175.673 57.8667 170.673 56.6 164.806 56.6C158.673 56.6 153.273 57.9333 148.606 60.6C143.94 63.2667 140.34 67 137.806 71.8C135.273 76.6 134.006 82.2667 134.006 88.8C134.006 95.4667 135.34 101.333 138.006 106.4C140.673 111.333 144.473 115.2 149.406 118C154.34 120.667 160.006 122 166.406 122C171.74 122 176.606 121.067 181.006 119.2C185.54 117.333 189.406 114.533 192.606 110.8L204.206 122.6C199.673 127.933 194.073 132 187.406 134.8C180.873 137.6 173.873 139 166.406 139ZM260.67 137L217.07 42H237.07L272.07 122.2H260.47L295.67 42H314.87L271.27 137H260.67Z" fill="white"/>
<path d="M330.419 137V42H348.419V137H330.419ZM339.419 23C336.085 23 333.352 21.9333 331.219 19.8C329.085 17.5333 328.019 14.7333 328.019 11.4C328.019 8.20001 329.085 5.53334 331.219 3.4C333.352 1.13333 336.085 -9.53674e-07 339.419 -9.53674e-07C342.752 -9.53674e-07 345.485 1.13333 347.619 3.4C349.752 5.53334 350.819 8.20001 350.819 11.4C350.819 14.7333 349.752 17.5333 347.619 19.8C345.485 21.9333 342.752 23 339.419 23Z" fill="#3C82F1"/>
</svg>
